<?xml version="1.0" encoding="utf-8"?>
<!-- Generator: Adobe Illustrator 22.0.1, SVG Export Plug-In . SVG Version: 6.00 Build 0)  -->
<svg version="1.1" id="레이어_1" xmlns="http://www.w3.org/2000/svg" xmlns:xlink="http://www.w3.org/1999/xlink" x="0px"
	 y="0px" viewBox="0 0 245.5 70.8" style="enable-background:new 0 0 245.5 70.8;" xml:space="preserve">
<style type="text/css">
	.st0{fill:#666666;}
	.st1{fill:#D4A938;}
	.st2{fill:#10376D;}
</style>
<g>
	<g>
		<path class="st0" d="M54.8,23.2h10.7c5.2,0,9.4,4.2,9.4,9.4c0,5.1-4.2,9.3-9.2,9.3h-4.2v6.8h-6.7C54.8,48.7,54.8,23.2,54.8,23.2z
			 M61.5,36.2h4.1c2,0,3.7-1.6,3.7-3.6s-1.6-3.7-3.7-3.7h-4.1V36.2z"/>
		<path class="st0" d="M78.5,23.2h6.7V42h9.2v6.7H78.5V23.2z"/>
		<path class="st0" d="M97.4,48.7l11.9-25.5h3l12,25.5h-6.7l-1.6-3.3h-10.4l-1.5,3.3H97.4z M108.2,39.7h5.2l-2.6-5.6L108.2,39.7z"/>
		<path class="st0" d="M139.7,39.3v9.4H133v-9.4l-9.3-16.1h7.7l4.9,8.5l4.9-8.5h7.7L139.7,39.3z"/>
		<path class="st0" d="M167.2,31.6c-1.1-1.1-2.5-1.7-4.3-1.7c-3.5,0-6,2.5-6,6s2.5,6,6,6c1.7,0,3.2-0.6,4.3-1.7l4.8,4.7
			c-2.3,2.3-5.5,3.8-9,3.8c-7,0-12.7-5.7-12.7-12.7S156,23.3,163,23.3c3.5,0,6.7,1.4,9,3.7L167.2,31.6z"/>
		<path class="st0" d="M188.7,23.2c7,0,12.7,5.7,12.7,12.8s-5.7,12.7-12.7,12.7S176,43,176,36S181.7,23.2,188.7,23.2z M188.7,29.9
			c-3.3,0-6,2.7-6,6.1c0,3.3,2.7,6.1,6,6.1c3.4,0,6.1-2.7,6.1-6.1C194.8,32.6,192.1,29.9,188.7,29.9z"/>
		<path class="st0" d="M206.1,23.2h6.7v25.5h-6.7V23.2z"/>
		<path class="st0" d="M236.6,48.7l-12-12.1v12.1h-6.7V23.2h2.7l12.1,12v-12h6.7v25.5H236.6z"/>
	</g>
	<g>
		<circle class="st1" cx="28.5" cy="35.8" r="14.2"/>
		<path class="st2" d="M6.1,36v-9.7c0-3.6,3.9-5.8,7-4l8.4,4.8l8.4,4.8c3.1,1.8,3.1,6.3,0,8l-8.4,4.8l-8.4,4.8c-3.1,1.8-7-0.4-7-4
			C6.1,45.5,6.1,36,6.1,36z"/>
	</g>
</g>
</svg>
