<?xml version="1.0" encoding="utf-8"?>
<!-- Generator: Adobe Illustrator 22.0.1, SVG Export Plug-In . SVG Version: 6.00 Build 0)  -->
<svg version="1.1" id="레이어_1" xmlns="http://www.w3.org/2000/svg" xmlns:xlink="http://www.w3.org/1999/xlink" x="0px"
	 y="0px" viewBox="0 0 283.5 283.5" style="enable-background:new 0 0 283.5 283.5;" xml:space="preserve">
<style type="text/css">
	.st0{fill:#595757;}
	.st1{fill:#D4A938;}
	.st2{fill:#10376D;}
</style>
<g>
	<g>
		<path class="st0" d="M40.8,174.5h11.7c5.6,0,10.2,4.6,10.2,10.2c0,5.6-4.6,10.2-10.1,10.2h-4.6v7.4h-7.3V174.5z M48.1,188.6h4.5
			c2.2,0,4-1.7,4-4c0-2.2-1.8-4-4-4h-4.5V188.6z"/>
		<path class="st0" d="M66.7,174.5H74V195h10v7.4H66.7V174.5z"/>
		<path class="st0" d="M87.4,202.3l13-27.8h3.3l13.1,27.8h-7.3l-1.7-3.6H96.4l-1.7,3.6H87.4z M99.3,192.5h5.7l-2.8-6.1L99.3,192.5z"
			/>
		<path class="st0" d="M133.6,192.1v10.2h-7.2v-10.2l-10.2-17.6h8.4l5.3,9.3l5.4-9.3h8.4L133.6,192.1z"/>
		<path class="st0" d="M163.8,183.7c-1.2-1.2-2.8-1.8-4.7-1.8c-3.8,0-6.5,2.7-6.5,6.5s2.7,6.5,6.5,6.5c1.9,0,3.5-0.7,4.7-1.9
			l5.2,5.1c-2.5,2.5-6,4.1-9.9,4.1c-7.7,0-13.9-6.2-13.9-13.9s6.2-13.9,13.9-13.9c3.8,0,7.3,1.5,9.8,4L163.8,183.7z"/>
		<path class="st0" d="M187.3,174.5c7.7,0,13.9,6.3,13.9,14c0,7.7-6.2,13.9-13.9,13.9s-13.9-6.2-13.9-13.9
			C173.4,180.8,179.6,174.5,187.3,174.5z M187.3,181.8c-3.6,0-6.6,3-6.6,6.6c0,3.6,3,6.6,6.6,6.6c3.7,0,6.6-3,6.6-6.6
			C194,184.7,191,181.8,187.3,181.8z"/>
		<path class="st0" d="M206.3,174.5h7.3v27.8h-7.3V174.5z"/>
		<path class="st0" d="M239.7,202.3l-13.1-13.2v13.2h-7.3v-27.8h3l13.2,13.1v-13.1h7.3v27.8H239.7z"/>
	</g>
	<g>
		<circle class="st1" cx="151.4" cy="114.8" r="33.7"/>
		<path class="st2" d="M98.4,115.1v-23c0-8.5,9.2-13.8,16.5-9.5l19.9,11.5l19.9,11.5c7.3,4.2,7.3,14.8,0,19.1l-19.9,11.5l-19.9,11.5
			c-7.3,4.2-16.5-1.1-16.5-9.5V115.1z"/>
	</g>
</g>
</svg>
